<svg width="34" height="34" viewBox="0 0 34 34" fill="none" xmlns="http://www.w3.org/2000/svg">
<path d="M7.90341 21V20.233L10.7841 17.0795C11.1222 16.7102 11.4006 16.3892 11.6193 16.1165C11.8381 15.8409 12 15.5824 12.1051 15.3409C12.2131 15.0966 12.267 14.8409 12.267 14.5739C12.267 14.267 12.1932 14.0014 12.0455 13.777C11.9006 13.5526 11.7017 13.3793 11.4489 13.2571C11.196 13.1349 10.9119 13.0739 10.5966 13.0739C10.2614 13.0739 9.96875 13.1435 9.71875 13.2827C9.47159 13.419 9.27983 13.6108 9.14347 13.858C9.00994 14.1051 8.94318 14.3949 8.94318 14.7273H7.9375C7.9375 14.2159 8.0554 13.767 8.29119 13.3807C8.52699 12.9943 8.84801 12.6932 9.25426 12.4773C9.66335 12.2614 10.1222 12.1534 10.6307 12.1534C11.142 12.1534 11.5952 12.2614 11.9901 12.4773C12.3849 12.6932 12.6946 12.9844 12.919 13.3509C13.1435 13.7173 13.2557 14.125 13.2557 14.5739C13.2557 14.8949 13.1974 15.2088 13.081 15.5156C12.9673 15.8196 12.7685 16.1591 12.4844 16.5341C12.2031 16.9062 11.8125 17.3608 11.3125 17.8977L9.35227 19.9943V20.0625H13.4091V21H7.90341ZM18.0668 21.1193C17.7088 21.1136 17.3509 21.0455 16.9929 20.9148C16.6349 20.7841 16.3082 20.5639 16.0128 20.2543C15.7173 19.9418 15.4801 19.5199 15.3011 18.9886C15.1222 18.4545 15.0327 17.7841 15.0327 16.9773C15.0327 16.2045 15.1051 15.5199 15.25 14.9233C15.3949 14.3239 15.6051 13.8196 15.8807 13.4105C16.1563 12.9986 16.4886 12.6861 16.8778 12.473C17.2699 12.2599 17.7116 12.1534 18.2031 12.1534C18.6918 12.1534 19.1264 12.2514 19.5071 12.4474C19.8906 12.6406 20.2031 12.9105 20.4446 13.2571C20.6861 13.6037 20.8423 14.0028 20.9134 14.4545H19.8736C19.777 14.0625 19.5895 13.7372 19.3111 13.4787C19.0327 13.2202 18.6634 13.0909 18.2031 13.0909C17.527 13.0909 16.9943 13.3849 16.6051 13.973C16.2188 14.5611 16.0241 15.3864 16.0213 16.4489H16.0895C16.2486 16.2074 16.4375 16.0014 16.6562 15.831C16.8778 15.6577 17.1222 15.5241 17.3892 15.4304C17.6563 15.3366 17.9389 15.2898 18.2372 15.2898C18.7372 15.2898 19.1946 15.4148 19.6094 15.6648C20.0241 15.9119 20.3565 16.2543 20.6065 16.6918C20.8565 17.1264 20.9815 17.625 20.9815 18.1875C20.9815 18.7273 20.8608 19.2216 20.6193 19.6705C20.3778 20.1165 20.0384 20.4716 19.6009 20.7358C19.1662 20.9972 18.6548 21.125 18.0668 21.1193ZM18.0668 20.1818C18.4247 20.1818 18.7457 20.0923 19.0298 19.9134C19.3168 19.7344 19.5426 19.4943 19.7074 19.1932C19.875 18.892 19.9588 18.5568 19.9588 18.1875C19.9588 17.8267 19.8778 17.4986 19.7159 17.2031C19.5568 16.9048 19.3366 16.6676 19.0554 16.4915C18.777 16.3153 18.4588 16.2273 18.1009 16.2273C17.831 16.2273 17.5795 16.2812 17.3466 16.3892C17.1136 16.4943 16.9091 16.6392 16.733 16.8239C16.5597 17.0085 16.4233 17.2202 16.3239 17.4588C16.2244 17.6946 16.1747 17.9432 16.1747 18.2045C16.1747 18.5511 16.2557 18.875 16.4176 19.1761C16.5824 19.4773 16.8068 19.7202 17.0909 19.9048C17.3778 20.0895 17.7031 20.1818 18.0668 20.1818ZM24.0039 12.2727L23.9187 18.5455H22.93L22.8448 12.2727H24.0039ZM23.4244 21.0682C23.2141 21.0682 23.0337 20.9929 22.8832 20.8423C22.7326 20.6918 22.6573 20.5114 22.6573 20.3011C22.6573 20.0909 22.7326 19.9105 22.8832 19.7599C23.0337 19.6094 23.2141 19.5341 23.4244 19.5341C23.6346 19.5341 23.815 19.6094 23.9656 19.7599C24.1161 19.9105 24.1914 20.0909 24.1914 20.3011C24.1914 20.4403 24.1559 20.5682 24.0849 20.6847C24.0167 20.8011 23.9244 20.8949 23.8079 20.9659C23.6942 21.0341 23.5664 21.0682 23.4244 21.0682Z" fill="black"/>
<line x1="7" y1="23.5" x2="26" y2="23.5" stroke="black"/>
</svg>
