<svg width="34" height="34" viewBox="0 0 34 34" fill="none" xmlns="http://www.w3.org/2000/svg">
<path d="M7.23881 16.8381V15.517C8.42489 15.517 9.25231 15.2685 9.72106 14.7713C10.1969 14.2741 10.4348 13.4432 10.4348 12.2784V8.86932C10.4348 7.8892 10.5272 7.04048 10.7118 6.32315C10.9036 5.60582 11.2125 5.01278 11.6387 4.54403C12.0648 4.07528 12.633 3.72727 13.3432 3.5C14.0534 3.27273 14.9306 3.15909 15.9746 3.15909V5.24716C15.1507 5.24716 14.5009 5.375 14.025 5.63068C13.5563 5.88636 13.2225 6.28409 13.0236 6.82386C12.8319 7.35653 12.736 8.03835 12.736 8.86932V13.1307C12.736 13.6847 12.6614 14.1889 12.5123 14.6435C12.3702 15.098 12.1039 15.4886 11.7132 15.8153C11.3226 16.142 10.7651 16.3942 10.0407 16.5717C9.32333 16.7493 8.38938 16.8381 7.23881 16.8381ZM15.9746 30.4318C14.9306 30.4318 14.0534 30.3182 13.3432 30.0909C12.633 29.8636 12.0648 29.5156 11.6387 29.0469C11.2125 28.5781 10.9036 27.9851 10.7118 27.2678C10.5272 26.5504 10.4348 25.7017 10.4348 24.7216V21.3125C10.4348 20.1477 10.1969 19.3168 9.72106 18.8196C9.25231 18.3224 8.42489 18.0739 7.23881 18.0739V16.7528C8.38938 16.7528 9.32333 16.8416 10.0407 17.0192C10.7651 17.1967 11.3226 17.4489 11.7132 17.7756C12.1039 18.1023 12.3702 18.4929 12.5123 18.9474C12.6614 19.402 12.736 19.9062 12.736 20.4602V24.7216C12.736 25.5526 12.8319 26.2344 13.0236 26.767C13.2225 27.2997 13.5563 27.6939 14.025 27.9496C14.5009 28.2124 15.1507 28.3438 15.9746 28.3438V30.4318ZM7.23881 18.0739V15.517H9.75302V18.0739H7.23881ZM26.7585 16.7528V18.0739C25.5724 18.0739 24.7415 18.3224 24.2656 18.8196C23.7969 19.3168 23.5625 20.1477 23.5625 21.3125V24.7216C23.5625 25.7017 23.4666 26.5504 23.2749 27.2678C23.0902 27.9851 22.7848 28.5781 22.3587 29.0469C21.9325 29.5156 21.3643 29.8636 20.6541 30.0909C19.9439 30.3182 19.0668 30.4318 18.0227 30.4318V28.3438C18.8466 28.3438 19.4929 28.2124 19.9616 27.9496C20.4375 27.6939 20.7713 27.2997 20.9631 26.767C21.1619 26.2344 21.2614 25.5526 21.2614 24.7216V20.4602C21.2614 19.9062 21.3324 19.402 21.4744 18.9474C21.6236 18.4929 21.8935 18.1023 22.2841 17.7756C22.6747 17.4489 23.2287 17.1967 23.946 17.0192C24.6705 16.8416 25.608 16.7528 26.7585 16.7528ZM18.0227 3.15909C19.0668 3.15909 19.9439 3.27273 20.6541 3.5C21.3643 3.72727 21.9325 4.07528 22.3587 4.54403C22.7848 5.01278 23.0902 5.60582 23.2749 6.32315C23.4666 7.04048 23.5625 7.8892 23.5625 8.86932V12.2784C23.5625 13.4432 23.7969 14.2741 24.2656 14.7713C24.7415 15.2685 25.5724 15.517 26.7585 15.517V16.8381C25.608 16.8381 24.6705 16.7493 23.946 16.5717C23.2287 16.3942 22.6747 16.142 22.2841 15.8153C21.8935 15.4886 21.6236 15.098 21.4744 14.6435C21.3324 14.1889 21.2614 13.6847 21.2614 13.1307V8.86932C21.2614 8.03835 21.1619 7.35653 20.9631 6.82386C20.7713 6.28409 20.4375 5.88636 19.9616 5.63068C19.4929 5.375 18.8466 5.24716 18.0227 5.24716V3.15909ZM26.7585 15.517V18.0739H24.2443V15.517H26.7585Z" fill="black"/>
</svg>
